
<global>
amp_veltrack=0
</global>

<group>
amp_veltrack=0
ampeg_decay=20
ampeg_sustain=0
group_label=Group_0-45
lpc_hicc1=42
lpc_locc1=0

<region>
hikey=C7
hivel=127
lokey=f#6
lovel=1
lpc=AYRDQlR9tcIQ+KVC3iwdwsmvMkHcgjNBtykiwMIOqMGh1wZC7B9NwYHex0CQTB/AiekCQbb7c8FhZMVBb36Bwg9un0IzXz7CtUS4QF/uB0FPdGLBJKZQv2MjmkH9vp3B
lpc_rms=-22.21
offset=4691
pitch_keycenter=G6
sample=Clarinet_invertedmordent_semitone_PP_G6.opus
tune=-14
</region>

<region>
hikey=a3
hivel=127
lokey=A3
lovel=1
lpc=6TG1QowKFMNXqIJC7afQwfrUP0Hu5hBAFt7RP308AsF1tPRA5MPaQDSZ/T7RyWE/k6ytP7Q2QcAvlMk9e6yHwEmxNUBeeCc/lOafwKWhkb9JrhtAPQ8Ev0CZrMCb4/RA
lpc_rms=-28.93
pitch_keycenter=a3
sample=Clarinet_invertedmordent_semitone_PP_A3.opus
tune=-21
</region>

<region>
hikey=a4
hivel=127
lokey=g#4
lovel=1
lpc=Suq6QpXQFsMzbGVClNwFwXUuUUEng6LAXwnuQJEUfcH9A4VBve3DQPjDX8G54gRBcn0EwaE+nECvp8LAmmFAwDWxskBmK01ABfAWv8RPT8A8UjA/nctLQK1CREHKijjB
lpc_rms=-28.85
offset=6270
pitch_keycenter=a4
sample=Clarinet_invertedmordent_semitone_PP_A4.opus
tune=-38
</region>

<region>
hikey=a5
hivel=127
lokey=g#5
lovel=1
lpc=VxPxQvT1Z8PzqyxDfc2EwsfqYUJ0C0/C95yfQTwqj8D2q2lAHP5sQU9/c8F06nTBD0czQoIN0MHUEZw/mHN7wIWWl0FQyYDBcGCDQRsPfsEJ5ABBXZIsQSZ6xb+BLF/B
lpc_rms=-19.57
offset=817
pitch_keycenter=a5
sample=Clarinet_invertedmordent_semitone_PP_A5.opus
tune=-40
</region>

<region>
hikey=b3
hivel=127
lokey=a#3
lovel=1
lpc=gPnXQpfSTsPE7tBCSMiKwZGRfkFgfSvBgIB4QOsqaUAdWAhB98VwQDHruMALs+XA21OqwDVxVT9cnFVA62b0vxXLjMCq7gJB8QgdP8VwBkAzoZVAcNZAwJPdkMGfm1xB
lpc_rms=-26.95
offset=878
pitch_keycenter=b3
sample=Clarinet_invertedmordent_semitone_PP_B3.opus
tune=-13
</region>

<region>
hikey=b4
hivel=127
lokey=a#4
lovel=1
lpc=qME+Q3OTpcMSwAtDQ9mtwX3jS0LLe93BCfgqQVslncFSvi9Bwy6UQNE7W0ASGC3BCPiowAalP0GwiArBKDgLQfakgMCCXkZAbpZLQIngaMGAXRVBpthRQafCREGQ773B
lpc_rms=-22.41
offset=1047
pitch_keycenter=b4
sample=Clarinet_invertedmordent_semitone_PP_B4.opus
tune=-41
</region>

<region>
hikey=b5
hivel=127
lokey=a#5
lovel=1
lpc=a0B6QqP0BcOVx/ZCLm+JwqWL50G9J9fAd25GwJGrk8A4qIhBTRIcwWt0QMEIgaNBimSewOZDScGYNzJB+yRZQGXNCcEtwgg/T/y8QJO9IcAyUgLA+lJKQWR5BsIPFphB
lpc_rms=-25.23
offset=7090
pitch_keycenter=b5
sample=Clarinet_invertedmordent_semitone_PP_B5.opus
tune=-33
</region>

<region>
hikey=c#4
hivel=127
lokey=c4
lovel=1
lpc=wWecQoKmDsPuhWZCNrYUwcoFh0Ec3J9ARGu2QDY/EMFkPss+xSlFP2zRV7+pScq/bZ66vxVzHcAzvrK/ivu4v0OJT0CJNBFBi9EeQEImi8Dx6krAXIhkwOP1DsEJE0BB
lpc_rms=-30.73
offset=378
pitch_keycenter=c#4
sample=Clarinet_invertedmordent_semitone_PP_C#4.opus
tune=-34
</region>

<region>
hikey=c#5
hivel=127
lokey=c5
lovel=1
lpc=+vX+QqpkO8MJYpBCRrVlwjZKS0IYsRxBPL3KwHBbocCFzkRB0is8wIeJdL81f4PAnPMfwdSJmb5rsYDA8MEYQa/sRkEH+2lAeyccwMGHM0DbBMLAZ1SYvltuTsGA4DxB
lpc_rms=-25.63
offset=10577
pitch_keycenter=c#5
sample=Clarinet_invertedmordent_semitone_PP_C#5.opus
tune=-25
</region>

<region>
hikey=c#6
hivel=127
lokey=c6
lovel=1
lpc=oQVkQtCa18KgGKZC03gGwo5WPkFFTCK/bQxdQBRaCcFkyGNBo9v9wNafEUCmw9pAyguGwKYXaL+UiQtB0xauwGchPkBsCAdA3YvVPubockCgV2LB0Oz9wDJr6kEfMjjB
lpc_rms=-25.81
offset=3761
pitch_keycenter=c#6
sample=Clarinet_invertedmordent_semitone_PP_C#6.opus
tune=-38
</region>

<region>
hikey=d#4
hivel=127
lokey=d4
lovel=1
lpc=qIqjQt+f8sK+Lt5BmF7OwEfmV0Fv1AFBWUCCQOQUvcDl8IRAHAPVvzMpeMBbL8tAu/e+wJDnSr85ydhAtvULwSh23j9MRkBAskWjQMINksB/+gDAQTU1wJy7IsFq63FB
lpc_rms=-29.03
offset=1052
pitch_keycenter=d#4
sample=Clarinet_invertedmordent_semitone_PP_D#4.opus
tune=-21
</region>

<region>
hikey=d#5
hivel=127
lokey=d5
lovel=1
lpc=pZTgQXWyKsK5a6FBad82wVq/+0BtVWO+dRagQF6h0sBD0V5AffzJPhQBQ8AyIog/9fCDP1SBlL2wWIo/R9HNv5Vt1L40YYJAT44HwAJSqj/SNOE/rGaKwFjizj6nTvA/
lpc_rms=-37.74
pitch_keycenter=d#5
sample=Clarinet_invertedmordent_semitone_PP_D#5.opus
tune=-49
</region>

<region>
hikey=d#6
hivel=127
lokey=d6
lovel=1
lpc=HW+zQtQPN8MdJhRDS+sdwti/T0G0K5nBeTHgQfSN9sGlRhpCrg6NwYvi1UAgHb1AqcOLQPgXnkDPJA/B88KcQcLYosBqArpAFlqmwbjmO8FQr51Cl7ZUwmNQTsETQLRB
lpc_rms=-20.94
offset=861
pitch_keycenter=d#6
sample=Clarinet_invertedmordent_semitone_PP_D#6.opus
tune=-39
</region>

<region>
hikey=f4
hivel=127
lokey=e4
lovel=1
lpc=EBzTQpRUJ8PjW5hCqB7kwQ0GiUH+J72/wQfpQM/yY8EnnwpAvpgvQSPgBsFyxm5BzkqlwGAd+b/jeoW/exKqwMjB8z+XjQxAhsJhvpuRosB4r/4/XhyewBcSxj81CRhB
lpc_rms=-26.95
offset=346
pitch_keycenter=f4
sample=Clarinet_invertedmordent_semitone_PP_F4.opus
tune=-32
</region>

<region>
hikey=f5
hivel=127
lokey=e5
lovel=1
lpc=HHf3QuEpecMRPBtDoTnrwSqGu0FEsK3AYQu6wIMmVcFReCNBz/jgQHi+FMFOCEdAQEsuQZcAKcHxkrJA+7+BwF8k0T/KozNBVPIdwcNMF0Bjhl/AiJeRwDlBwkHNIEfB
lpc_rms=-23.82
offset=55
pitch_keycenter=f5
sample=Clarinet_invertedmordent_semitone_PP_F5.opus
tune=-42
</region>

<region>
hikey=f6
hivel=127
lokey=e6
lovel=1
lpc=KjWdQuamJsONuiNDNZCjwtaf+kHS3itA7mxFwY5uHEEINDtBVYYBQAXzZsGYAxFC1ontwQYYiUFGOJVBuI3RwZfTakDDco/BaFukQgdaucIY6HVC3x0vwlH9EUIjq1/B
lpc_rms=-20.02
offset=1471
pitch_keycenter=f6
sample=Clarinet_invertedmordent_semitone_PP_F6.opus
tune=-45
</region>

<region>
hikey=g4
hivel=127
lokey=f#4
lovel=1
lpc=gSUDQ8cpTcOv9sJCgRADwpcjgEFP7cnALOZEQeQAssHkXWNBWzkUQXTDycAIlCJByYdxwPAFqT9//MnAN2MewbkHU0DpzUhAmEpQwIOZ7T2HVz8/YuZRQKDxWD9RCehA
lpc_rms=-26.17
offset=379
pitch_keycenter=g4
sample=Clarinet_invertedmordent_semitone_PP_G4.opus
tune=-32
</region>

<region>
hikey=g5
hivel=127
lokey=f#5
lovel=1
lpc=/WErQrHasMLo4IhCZ0DywdJGgEH+QUK/kRakwMJpxb9kqJJAoJGqvyeg0L9DhIRAWkRxvpBkKMCUWMA/mSAlwCOTi0BUhANALNt7wLh4jz6bXOI/uUFpwGJwI0FyheHA
lpc_rms=-32.26
offset=1727
pitch_keycenter=g5
sample=Clarinet_invertedmordent_semitone_PP_G5.opus
tune=-48
</region>
</group>

<group>
amp_veltrack=0
ampeg_decay=20
ampeg_sustain=0
group_label=Group_46-90
lpc_hicc1=84
lpc_locc1=43

<region>
hikey=a5
hivel=127
lokey=g#5
lovel=1
lpc=mRJWQszQ/cJrEgxDzQKkwoiRpkHZDJhAPcyPP1etxMCBqNZAoa0QwQ85UkGXsg3B6u9qQKLtFkAbG1LACRVgQJm0F8CqMT1AHbiTv5Jjlj/a5fxAP4O0wR4o80FLOInB
lpc_rms=-15.32
offset=9269
pitch_keycenter=a5
sample=Clarinet_invertedmordent_semitone_MF_A5.opus
tune=-36
</region>

<region>
hikey=b5
hivel=127
lokey=a#5
lovel=1
lpc=WNyqQedhMcJfvC1CXgqzwUBd+kB/jc++DG68P2Z3WcCVxZdAU0dfQAiqD8Hyv+5Ac/oBQIKN3sBM4w5BpD4JwCa+ccDt9J5ABrskQIUEiMCbRGI/hCIJQcGbTcEIB8lA
lpc_rms=-21.59
offset=9701
pitch_keycenter=b5
sample=Clarinet_invertedmordent_semitone_MF_B5.opus
tune=-28
</region>

<region>
hikey=c#6
hivel=127
lokey=c6
lovel=1
lpc=kCRQQrSvzcK6KrdCZ2gvwg8wuEGOhQzB3V8DQcxqusA/vQhBf1s2wOtm+76ukM9A7ubHvyvnZ7/iQ/RA8ZfxwBb8O0FJWhLB9Q8VQf4fVMBQk7tA91opwln3eUJ7hu3B
lpc_rms=-15.95
offset=98
pitch_keycenter=c#6
sample=Clarinet_invertedmordent_semitone_MF_C#6.opus
tune=-36
</region>

<region>
hikey=d#6
hivel=127
lokey=d6
lovel=1
lpc=tOj0QYisScLHDjpCLlTBwXplg0Gk/nbBZ8LBQYH3ksGKr6NBsGMUwd6q+0Bl5StA0CQ0P0DX0kAMdoe/7hmMQOfyrT8K4uRA5OvwwOu+B8EkGdhB9BGXwX7/CUHIKdU/
lpc_rms=-17.56
offset=673
pitch_keycenter=d#6
sample=Clarinet_invertedmordent_semitone_MF_D#6.opus
tune=-41
</region>

<region>
hikey=f6
hivel=127
lokey=e6
lovel=1
lpc=z9cdQmcqb8IKMWFCo17IwcsxZEE9NZNAij+cQHJQFcAtDmxBHhkjP0TGDEFBKbFAtIIAQVmBNUCZzBBB/skCQXh3lcCVU17BRB46QgNKFcI7LdJBGZXGwDBch78FPOtA
lpc_rms=-15.19
offset=11915
pitch_keycenter=f6
sample=Clarinet_invertedmordent_semitone_MF_F6.opus
tune=-42
</region>

<region>
hikey=C7
hivel=127
lokey=f#6
lovel=1
lpc=7VshQnE7gsJIhoBCXR8VwtL5v0HQmrvAcyR5Qa8I0ME4UbZB7eXZv7/nAkDCadA/AanFPbSFKz9K5hVAuZAcwuw5eUKkAmLCx076QdTKkMHyZoNAFDdGwVP5wEE4mJPB
lpc_rms=-14.97
offset=435
pitch_keycenter=G6
sample=Clarinet_invertedmordent_semitone_MF_G6.opus
tune=-36
</region>

<region>
hikey=a3
hivel=127
lokey=A3
lovel=1
lpc=6mSMQlk7S8P07lFDkNmzws1mt0F7rZjBIhgwQYISisDKuI1AypApQfVJuMFHXk9BJZpUwBJFPMB4WrdAvafewGBOOUGlSKW/HqHAwNHPk8BdmPhANOZuwEUzA0DGFdq+
lpc_rms=-18.58
offset=9685
pitch_keycenter=a3
sample=Clarinet_invertedmordent_semitone_MF_A3.opus
tune=-4
</region>

<region>
hikey=a4
hivel=127
lokey=g#4
lovel=1
lpc=N7JmQgf0J8PNkklDSK35wuCoQkIEZrbB0gmzQZqFCcKZwhdCn/2uwR2s/0DPZTNAcHJgwU85/T+TnZVBJHKJwfyLFEFrbgvB9SNtQH4wxUCxkXHBJlW2QabfpsEtpxhB
lpc_rms=-17.69
offset=707
pitch_keycenter=a4
sample=Clarinet_invertedmordent_semitone_MF_A4.opus
tune=-14
</region>

<region>
hikey=b3
hivel=127
lokey=a#3
lovel=1
lpc=kFKQQn3dYcMdEoVDDtQHwz7BwUFalrnA0YUWP3+fVkBOpP9AxqMbQdxyIcIkP+9BMLzIv/Wv+8C4zdRAlbMpwckyK0GETQbAIeqlv8ZxJsBUfQVBUd3swBXwY74+MANA
lpc_rms=-18.44
offset=1641
pitch_keycenter=b3
sample=Clarinet_invertedmordent_semitone_MF_B3.opus
tune=-5
</region>

<region>
hikey=b4
hivel=127
lokey=a#4
lovel=1
lpc=0UpKQg+l88Jp7eJCgIg4wk9ynUFSR9bBAkGtQeyiiME+cM9BtZfTwdegg0FwjEnBOUnwQKGgsUDcc3bByywlQZXwYECAUfzAhSiEQPJhEMBWaTdAR9w9QEkq9MBOectA
lpc_rms=-17.10
offset=9771
pitch_keycenter=b4
sample=Clarinet_invertedmordent_semitone_MF_B4.opus
tune=-24
</region>

<region>
hikey=c#4
hivel=127
lokey=c4
lovel=1
lpc=/Lg5QtxS7sLqC71COmSpweIWhkGlbcbBDy0TQTBUK8G8SShBMb9bQVrVxcFGbRlBAW2MwLO7oUCu6iFAxPnVvzbumsCwDZpA3wkivslYSMDqjJ29PUgYQQSZTMG6jqlA
lpc_rms=-21.82
offset=547
pitch_keycenter=c#4
sample=Clarinet_invertedmordent_semitone_MF_C#4.opus
tune=-20
</region>

<region>
hikey=c#5
hivel=127
lokey=c5
lovel=1
lpc=reDaQq/zgsMJQnVDQ3bKwiHrpEHmAbvBkUmkQYVE4UBGt4/BLj7XPgSLvEA9oS9BHQRlwOVaj8Hae15BRlPrwIGs6T/xdClBhGDdP/DRKMEr7PS//8jKQawkxMGpnfNA
lpc_rms=-13.79
offset=10206
pitch_keycenter=c#5
sample=Clarinet_invertedmordent_semitone_MF_C#5.opus
tune=-31
</region>

<region>
hikey=d#4
hivel=127
lokey=d4
lovel=1
lpc=tvSHQrLuQsMRr0xDRAbCwmW7D0KBhNDBFNMcQb7vksAX6xJBnj2bwB8EvT7VM7k+LuDMP1bExcD9Pt5AEWA9wT9Zv0GmC5DBhF9EQFsCBME0EOtAdfiBQVHM18FjBUFB
lpc_rms=-19.85
offset=899
pitch_keycenter=d#4
sample=Clarinet_invertedmordent_semitone_MF_D#4.opus
tune=-15
</region>

<region>
hikey=d#5
hivel=127
lokey=d5
lovel=1
lpc=OEIHQlO5rsI26rpCPZVOwprxk0GU2M7ABq0MQBY9OsDtEMxAPI2IwHJ4dUA3w4rAXpu/Pmh8oT5aXYVAogKkwMmlbEC2glZA4tYSwVyeq0DHAqJApl2qwIIbXMAqaqNA
lpc_rms=-18.61
offset=1506
pitch_keycenter=d#5
sample=Clarinet_invertedmordent_semitone_MF_D#5.opus
tune=-30
</region>

<region>
hikey=f4
hivel=127
lokey=e4
lovel=1
lpc=Qg64Qr8ngMOBlYlDor8aw0UWnkJYmyrCIewCQE3KP8EVww1CevISwRlTjMFAtK5BSPzSwdp9WkHFVRdBRYXPwDSo5MCgjh9BQzyJwZt8qUHU6ZHBeeftQa/LG8JkJZxB
lpc_rms=-17.99
offset=741
pitch_keycenter=f4
sample=Clarinet_invertedmordent_semitone_MF_F4.opus
tune=-18
</region>

<region>
hikey=f5
hivel=127
lokey=e5
lovel=1
lpc=GyA5QgZQ88Jb5Q5D6jnBwly3MUISvgrB4ExQwDPMBsA2VedAovuHwHrcyUCzf7bAfZkzQJBdi8ATWOtADm+tv6j2j7/nPCRAKKC/v8XdPD5fRADByVjhQcDlAMIf+HtB
lpc_rms=-16.94
offset=1015
pitch_keycenter=f5
sample=Clarinet_invertedmordent_semitone_MF_F5.opus
tune=-29
</region>

<region>
hikey=g4
hivel=127
lokey=f#4
lovel=1
lpc=npSGQoTeNcPIiD5DmvW1wtOn0kEaUaDBwDZGQZ/SgsCr/0Y/l/YmQYOSo8EIas1BsQ2hwQQCq79tbj1BcCk6wAT/QsAJ3KtAM07/wI9XCEDVDq3AyFn+QfroM8IvXbFB
lpc_rms=-18.52
offset=746
pitch_keycenter=g4
sample=Clarinet_invertedmordent_semitone_MF_G4.opus
tune=-19
</region>

<region>
hikey=g5
hivel=127
lokey=f#5
lovel=1
lpc=QmLIQRR5X8J1QnJCIYobwv2we0GuI64+KluUP9Q3LsGDN4JBWWgzwaryMkG0y0nBcSpHQeT/4MBzsQBAjr5YQPGMfsDDG2BA0ZHav1MicUAoqxA/m8OxwMObvEDnrdu9
lpc_rms=-22.02
offset=935
pitch_keycenter=g5
sample=Clarinet_invertedmordent_semitone_MF_G5.opus
tune=-36
</region>
</group>

<group>
amp_veltrack=0
ampeg_decay=20
ampeg_sustain=0
group_label=Group_91-127
lpc_hicc1=127
lpc_locc1=85

<region>
hikey=a5
hivel=127
lokey=g#5
lovel=1
lpc=J47rQQz/asL/KYhCq79QwviSCUKvXQvBBY+yP/R8AMHQP7dB0j+1wXbWp0E4XVvB8bRvQS2KbcHZWqVBRjmHwbK/P0Gb/QJA4ruPwFgP2j/hwr5Ac6CQv+5G6T8EEXM/
lpc_rms=-7.46
offset=167
pitch_keycenter=a5
sample=Clarinet_invertedmordent_semitone_FF_A5.opus
tune=-31
</region>

<region>
hikey=b5
hivel=127
lokey=a#5
lovel=1
lpc=paopQcUFicH/w51BX55swe+xB0GnLkq/sQeTvoV1tr9ZpNpAoe4CwV6qFEFbpKLAHfcGQGDDtz/I7r++8I9xv+5Op0ChEe3AZ/IVQeC5usDAhy9A8gEKQIesx7+hdoy/
lpc_rms=-18.59
offset=12917
pitch_keycenter=b5
sample=Clarinet_invertedmordent_semitone_FF_B5.opus
tune=-22
</region>

<region>
hikey=c#6
hivel=127
lokey=c6
lovel=1
lpc=FCfFQXfLDsIwawxCHemawTTof0HtaKnALqvGQIfvr7/Mbp1ATm6fP6KFST+rIYpAc5wCP/XrFUAP/VhAboK3PCuSa0DMcZE/xbtgQF9LoL5E/9NA4IelwbmOr0FzgQvB
lpc_rms=-11.54
offset=15730
pitch_keycenter=c#6
sample=Clarinet_invertedmordent_semitone_FF_C#6.opus
tune=-29
</region>

<region>
hikey=d#6
hivel=127
lokey=d6
lovel=1
lpc=ej+5QTQOBsK7xANCsDSQwXoRP0GgmG3A2//qQMieh8DJbElB9LO/wA7wkkDrsLhARNHeP+W0/z49udg/gtAMQXPkbsC9l4ZA5/JzQJWXgcHCab5BNAF2wVUr8kAUhE8/
lpc_rms=-7.89
offset=538
pitch_keycenter=d#6
sample=Clarinet_invertedmordent_semitone_FF_D#6.opus
tune=-30
</region>

<region>
hikey=f6
hivel=127
lokey=e6
lovel=1
lpc=AjE8QhMHgcKQLGhCNiyiwQJ3VUGJOyRB6fW6QByS3r8RMp5BGAOKP7aJfUHedrRA3YFPQXAt5kBGSBdBQr5lQfGoLMAhdJ3BczRqQlAZG8KS1MBBPDL1P3q/C8HcSmlB
lpc_rms=-9.79
offset=15029
pitch_keycenter=f6
sample=Clarinet_invertedmordent_semitone_FF_F6.opus
tune=-33
</region>

<region>
hikey=g5
hivel=127
lokey=f#5
lovel=1
lpc=EMZBQaBJzMGfLfZBGEvEwRsThkH8pQbBqR7fQB7UGsG0ulJBLoYPwS9cQkA9SpM/4cUMQMoSssDA7/JAdgCLwKtC2z9A1oo/kwQLPxZHA8CjfYRAmXZOvycoMsDu9H9A
lpc_rms=-12.91
offset=9032
pitch_keycenter=g5
sample=Clarinet_invertedmordent_semitone_FF_G5.opus
tune=-33
</region>

<region>
hikey=C7
hivel=127
lokey=f#6
lovel=1
lpc=zfwoQsxBasLZBG9CEpXIwS8J30Htf6w/hfi3QPgUOUG8P11B8GfZQAZSkUF4USFBNhSKQY1/zUDuRM1BkcAYwuOWiEK4yfjBrU+tQUNbIb994+Q/Rv9sQSOzjMAB2N5A
lpc_rms=-10.25
offset=274
pitch_keycenter=G6
sample=Clarinet_invertedmordent_semitone_FF_G6.opus
tune=-23
</region>

<region>
hikey=a3
hivel=127
lokey=A3
lovel=1
lpc=CXA8Qi1uDcMJuiFDNPStwvbs6UG4mazBCeCTQTKbSsE5VJlBtI68wW7kkUFLgovBGpuKQZz09MAfAwjAvfwIP2LcmEBNE+G/RLs3wJ9oS76hyWxAuGYMPwy5msCaxB5A
lpc_rms=-15.80
offset=1674
pitch_keycenter=a3
sample=Clarinet_invertedmordent_semitone_FF_A3.opus
tune=-10
</region>

<region>
hikey=a4
hivel=127
lokey=g#4
lovel=1
lpc=IbTGQeBjZsJrXGhCTgwSwpkmw0FngKXBjU6TQTzMrMFhQapB88H5wPDny8BGnRhBWyL1wJyyr0DMCYLATlnBQIalEsHnY9hAAXM4QFBfJMG5gK5AgBu1QOImK8GZvOJA
lpc_rms=-14.60
offset=11672
pitch_keycenter=a4
sample=Clarinet_invertedmordent_semitone_FF_A4.opus
tune=-20
</region>

<region>
hikey=b3
hivel=127
lokey=a#3
lovel=1
lpc=I5UAQnRswsIUsvBCWJmdwl8640HDWXjA8btLv4vCbMC+3t5A9fwcwPRQacCiNb1AGAxzwGt9f79eB7E/jTXhP16HDsAlll9ANIsEwY1+M0Fugx/B6Z8aQRgTDcFZrGNA
lpc_rms=-15.83
offset=1054
pitch_keycenter=b3
sample=Clarinet_invertedmordent_semitone_FF_B3.opus
tune=-8
</region>

<region>
hikey=b4
hivel=127
lokey=a#4
lovel=1
lpc=ytgLQom0ncJt5pdCwjkwwqDEDUKNgBXCOKfiQWbjqsHQUJNBoQYXwVmCBD8xyYY/CTUbwOBIE0EP5YrByfB/Qefd78Axr6ZAukOkwL5q+b9PvyNBL2OvwE30BsBHn5JA
lpc_rms=-13.10
offset=376
pitch_keycenter=b4
sample=Clarinet_invertedmordent_semitone_FF_B4.opus
tune=-17
</region>

<region>
hikey=c#4
hivel=127
lokey=c4
lovel=1
lpc=mtgAQrvh1MKTWBtD0HEKwyfGqkKP+PDBHNzfwMjvPUGtSpNA3SY6wZckeEATz4VAF9ffwNzRmkAGusy+yKW/wBMmEkEK+EzAuTKQwIKq/0CsURLBFroMQUUCr8AAjK8/
lpc_rms=-17.49
offset=553
pitch_keycenter=c#4
sample=Clarinet_invertedmordent_semitone_FF_C#4.opus
tune=-18
</region>

<region>
hikey=c#5
hivel=127
lokey=c5
lovel=1
lpc=/KMyQtodvcL5pMVCnb2Cwmqg/EF2k6zAjrMHwZtC1kBcP0jAEzQrPmGHg78G4BhB/q8jwQVCpEDHCwvBHUMpQUfV48Cf5pFAROHjP7r6s8AkrylBKEsKwdQTRUF/Z7rA
lpc_rms=-14.44
offset=291
pitch_keycenter=c#5
sample=Clarinet_invertedmordent_semitone_FF_C#5.opus
tune=-18
</region>

<region>
hikey=d#4
hivel=127
lokey=d4
lovel=1
lpc=RmPXQUoumcJ0QaxCPrNQwoCxwUGluhXB17pLPxjpPMD/W4VAyDvzPz8Mi8BFNm1AiDSvwGl9iUBE/ze/uYwXwOxNk0DzAjfAl4RfPzOkgD6RZ9q/XGhHPo7EPj/3RDM+
lpc_rms=-19.86
offset=870
pitch_keycenter=d#4
sample=Clarinet_invertedmordent_semitone_FF_D#4.opus
tune=-15
</region>

<region>
hikey=d#5
hivel=127
lokey=d5
lovel=1
lpc=rxaIQamrEMIuySNCpZYAwmmpvkEdXljByljyQHf1NsGrBW9Bbj9CwXEyN0GoPxzB0uuRP+sX6T+VP41AH+/jwAqikkD5DmW9N9QVwLyJsUAFZJ4+pC6cwICufUC1Cyi+
lpc_rms=-13.03
offset=1193
pitch_keycenter=d#5
sample=Clarinet_invertedmordent_semitone_FF_D#5.opus
tune=-32
</region>

<region>
hikey=f4
hivel=127
lokey=e4
lovel=1
lpc=VD8JQsQC0MLdGwhD/QzhwmkwrUJo9IrC6LhBQr/IPML4SmNCBX0NwuLiZDz/HlpBcl5jwdW8bkEdS2jB/2yUQSoh8MFbqh9Chs8pwu26F0JV8vPBfNnKQW/dl8EHL/FA
lpc_rms=-15.53
offset=610
pitch_keycenter=f4
sample=Clarinet_invertedmordent_semitone_FF_F4.opus
tune=-20
</region>

<region>
hikey=f5
hivel=127
lokey=e5
lovel=1
lpc=01moQZ1uVMIBOIpC/uV1wh98H0JIPT3BtolLwA5nrj5xHAlBZ5FAwYkvKkH7vTTArtzNwHYFHkEkQQjBbecaQSqJ+sCfHgNB0Y4lwZvxSkFCTFPB9olgQdGyKsFP1pxA
lpc_rms=-12.24
offset=539
pitch_keycenter=f5
sample=Clarinet_invertedmordent_semitone_FF_F5.opus
tune=-31
</region>

<region>
hikey=g4
hivel=127
lokey=f#4
lovel=1
lpc=IWriQY4Fm8KburpCS0ySwuy5UEJj6wTCNheFQaS+lcEJmbtBcT0rwW74ocCSk3FBjv+awXtDTkFJmC3AxDoswNkv0kA/iPPAac6kP0yZsEBNJSHBeWp7Qer8gcFcU/ZA
lpc_rms=-16.11
offset=1376
pitch_keycenter=g4
sample=Clarinet_invertedmordent_semitone_FF_G4.opus
tune=-19
</region>
</group>

<group>
amp_veltrack=0
ampeg_attack=2
ampeg_release=0.35
group_label=PP
lpc_hicc1=42
lpc_locc1=0
volume=-5

<region>
hivel=127
key=D#6
loop_end=266428
loop_mode=loop_continuous
loop_start=71957
loop_xfade=23564
lovel=0
lpc=mruXQywsIMRYYRNEHwukw/6piEObvYvDcpp6Q/KhPcOoFR5DadOiwn6RjUEMkFFCJ0Rcwki8dEIlCBTCSKmgQYhks0GeKSbBsEk1QvrKjMNBHcNDfrz8wpPDuMJez39C
lpc_rms=-10.36
offset=423
sample=Clarinet_sustain_PP_D#6.opus
</region>

<region>
hivel=127
key=E6
loop_end=259155
loop_mode=loop_continuous
loop_start=69993
loop_xfade=22921
lovel=0
lpc=CIr8QyaDhMTft2dELcq+w4Lcx0JUaUvCPHjQQqDt/cK/eANDjw4QwgAxMsIS+CBC14z2QWE6ZMLFA3NC1QutwU3IBMK/e7dCbG7ywyobPkS2FtXDYeVLwi1JKEMI8qbC
lpc_rms=-8.34
offset=2053
sample=Clarinet_sustain_PP_E6.opus
</region>

<region>
hivel=127
key=F#6
loop_end=266807
loop_mode=loop_continuous
loop_start=72060
loop_xfade=23598
lovel=0
lpc=f5GeQ9itHMTfJwdEciJ3w4ITD0PUmy7CncJ1wreERELAw2hCGr08wsorC0IJc87B/ZFDQaj9qUAOS4XBfOJBQt9PpMMKQORDIoBLw379u8IBiBBDRSxSwy92d0PY+BHD
lpc_rms=-13.02
offset=1009
sample=Clarinet_sustain_PP_F#6.opus
</region>

<region>
hivel=127
key=F6
loop_end=273748
loop_mode=loop_continuous
loop_start=73935
loop_xfade=24211
lovel=0
lpc=MqZWQ0idzMMCpLZDZnlIw2qozkLkTjbCXbH5Qduwc8EZArlAow0nQf2f1cFNXhRCvgwMwnvo0EG30ojBVm6KQWxWTcEl0yvDPzGLQ6mFJ8P4bqxBWA5AQXGjQ8GRTnvA
lpc_rms=-15.82
offset=1845
sample=Clarinet_sustain_PP_F6.opus
</region>

<region>
hikey=C7
hivel=127
lokey=G6
loop_end=252796
loop_mode=loop_continuous
loop_start=68276
loop_xfade=22358
lovel=0
lpc=Sm4FQ4CKOcONxtRCDJNzPza+mUBsrijA0vtdQWCC+cG1NTNC89nYwJBGpT+rt76/Jw4GQcHRhsGIkRZC0RcTw/K0+EJyHszA2rOBwj1CeUGjnPY/N7C0wcrFIEJQQyHC
lpc_rms=-18.51
offset=197
pitch_keycenter=G6
sample=Clarinet_sustain_PP_G6.opus
</region>

<region>
hivel=127
key=A#5
loop_end=259898
loop_mode=loop_continuous
loop_start=70194
loop_xfade=22986
lovel=0
lpc=qv5NQyFAxMNdOrdDWPlAw2E8hkLRQg/CKu1fQnaxU8KT8QdCQguzwCYBjMHsCPlB7TN0wQOVH0BJAFhB+EubwZKflEHp3WrBWAaoQciVPMCCi9vATX67wYy8r0LPsKvC
lpc_rms=-18.28
offset=8364
sample=Clarinet_sustain_PP_A#5.opus
</region>

<region>
hivel=127
key=A5
loop_end=275299
loop_mode=loop_continuous
loop_start=74353
loop_xfade=24349
lovel=0
lpc=JvcGQ6PKgMOZxj1D+GClwjn1NkJf1T/B3Cnav0E9eMHTYWdBkRifP2LPacBxzIU/I95Wv3+V0b+Unh5BOiYkwbHJfEBAY5s9ZCDNvb0qBcGZW45BUKpwwU2e50FGIAfC
lpc_rms=-23.82
sample=Clarinet_sustain_PP_A5.opus
</region>

<region>
hivel=127
key=B5
loop_end=283358
loop_mode=loop_continuous
loop_start=76530
loop_xfade=25061
lovel=0
lpc=sLxiQ9UL+8Pio+pDhMFlw/LUhkJe+/jBCEwnQhSoUcJLCC5CIqddQKX8LMJY0fpBQnjDQfTMdsI9SlJC1spiwbAaC8FAmmtBB76EwWN2bUFYuYLBOv6kQopKH8ONKJtC
lpc_rms=-16.59
sample=Clarinet_sustain_PP_B5.opus
</region>

<region>
hivel=127
key=C#6
loop_end=256448
loop_mode=loop_continuous
loop_start=69262
loop_xfade=22681
lovel=0
lpc=lNseQ7aKjcPAWmlDSUz/wjb6dEIpr6/B0NkJQQkFNcG1+4ZBYamGwDppy8CfyfNA3BJ7v8nghT6qCTlBwNLLwWLq3UG0/ALBLbuvwIM7L0G+PCdAjezEwrMYxELqBc7B
lpc_rms=-21.66
offset=1128
sample=Clarinet_sustain_PP_C#6.opus
</region>

<region>
hivel=127
key=C6
loop_end=254878
loop_mode=loop_continuous
loop_start=68838
loop_xfade=22543
lovel=0
lpc=VhsgQ0YrkcP+fHlDdrcQww6YwkLt0L7CBC6rQilzcMKH8+1BbPRSQW8tHcKb0AFCWhfbwL22Z8FYEgJCdIT6wXC4V0HvRAlBeX32weSbhEJ8EKbCtw6KQkAGusJUcDFC
lpc_rms=-19.36
offset=140
sample=Clarinet_sustain_PP_C6.opus
</region>

<region>
hivel=127
key=D6
loop_end=229508
loop_mode=loop_continuous
loop_start=61986
loop_xfade=20299
lovel=0
lpc=kxSkQ7zWKcS5RxhEiLu/w15xkUMpwDzDdmP7QhX9zsLP/pRCMS8KQW86IcIUufpBq3MtwbNDPMFHXG1CH81ZwnD2EkLLLr7BjqopQR9jLUI5NYLD1V2eQzavr8JLx/nB
lpc_rms=-11.98
offset=2360
sample=Clarinet_sustain_PP_D6.opus
</region>

<region>
hivel=127
key=G#5
loop_end=275774
loop_mode=loop_continuous
loop_start=74482
loop_xfade=24391
lovel=0
lpc=4MgyQ4BUs8OtkotDZokMwxRlokLn0nzBoGMdQFAABcI0vf9Bq9JFwUOIucC+Xz9Bxb9rQNYTj8Ew2uxBw5+xwY6oEEFhJcO9LE4ZwYlQ/sDy1vtBf6kKwhAPg0IhrlvC
lpc_rms=-19.94
offset=18160
sample=Clarinet_sustain_PP_G#5.opus
</region>

<region>
hivel=127
key=G5
loop_end=273255
loop_mode=loop_continuous
loop_start=73801
loop_xfade=24168
lovel=0
lpc=XrsrQ5lq3sMv3+9DI5qBw5b2skJpb+3B/HBHQQS9mMFSDwBCuZVXwcaVX8Dp7v1ADhzrQEg5mMGfPKtBEpLNwBMY28DwNnlBnQIeQHYimsFHkwZCcaB+wiT+pEI8bgzC
lpc_rms=-17.36
offset=3219
sample=Clarinet_sustain_PP_G5.opus
</region>

<region>
hivel=127
key=C#5
loop_end=284826
loop_mode=loop_continuous
loop_start=76926
loop_xfade=25191
lovel=0
lpc=mIQgQ1sanMPRbENDNvZ+wt9RSEKKurzBE7oIQaqdKMGTmbhBkffnwfHZUkFdgK7AfuuHwNBfhUAi9nY/gDzhQJcGJcCa0YHAUGQrQZmlH0HNi5XBFbZiQUkGtsFSm4hB
lpc_rms=-21.19
offset=7557
sample=Clarinet_sustain_PP_C#5.opus
</region>

<region>
hivel=127
key=D#5
loop_end=264960
loop_mode=loop_continuous
loop_start=71561
loop_xfade=23434
lovel=0
lpc=mV5RQqLIz8Il/pFC1JXTwUBhLkGrUAjA/2zwQEIQPsGMWTBBgT4DwE8IUMDveEq/3EpLPiEQnz6R/jVAzg/kvQY0BL8LKUFA91gEQBryEsBUe22+lMv2P1W2X8FNSWpB
lpc_rms=-31.60
offset=602
sample=Clarinet_sustain_PP_D#5.opus
</region>

<region>
hivel=127
key=D5
loop_end=263749
loop_mode=loop_continuous
loop_start=71234
loop_xfade=23327
lovel=0
lpc=fqqUQkQeNsOTCx9DxBVxwuBJ5UFpqb3BuX4kQatxGMFMDZRACl04QY6gG8HDIqg/DWm6wFyNLEAqGjNBq/UDwTpaFsC6A2xAPLPiPhdwzb83dMNA1BdQQGxor8FjYYBB
lpc_rms=-25.97
offset=1227
sample=Clarinet_sustain_PP_D5.opus
</region>

<region>
hivel=127
key=E5
loop_end=278751
loop_mode=loop_continuous
loop_start=75286
loop_xfade=24654
lovel=0
lpc=UQaFQ7hdB8Sdh7xDnkPcwkqSMUJYqbbB0dj7QSGNxcEzTR9BaCATQFBgZsGgyILAMlPjQHY420CzuL1BZ0YOwSpA0MBALc1AY1qyQNr3g8Hqdh5BRXAYQZXS2sFPK/FB
lpc_rms=-17.85
offset=2819
sample=Clarinet_sustain_PP_E5.opus
</region>

<region>
hivel=127
key=F#5
loop_end=260678
loop_mode=loop_continuous
loop_start=70405
loop_xfade=23055
lovel=0
lpc=Ax8pQ5IVosPO7mxD1AzRwleUVkLBv+k/omNMQHeUiMGC7KhBkh56wesJQT+rrZu/NErYQDIXyD+9e8tBvwchwXF3HsE5zRVBTM3+wFygH8CKP4hBJA5qwfgi+kGVETnB
lpc_rms=-21.79
offset=1468
sample=Clarinet_sustain_PP_F#5.opus
</region>

<region>
hivel=127
key=F5
loop_end=270118
loop_mode=loop_continuous
loop_start=72954
loop_xfade=23890
lovel=0
lpc=gAlNQxxg5sP7vslDNDwsw8DEk0IiXILBbLfRP89zEMJTCxFCeEoFwUcb7kDk0B9AOT5FQZg+MsF0uhJBlHUpwT/TAMHUKrlBSftBQPGu80CDB4bAmfQLQf5vTMKYPVRC
lpc_rms=-17.99
offset=1916
sample=Clarinet_sustain_PP_F5.opus
</region>

<region>
hivel=127
key=A#4
loop_end=270921
loop_mode=loop_continuous
loop_start=73171
loop_xfade=23961
lovel=0
lpc=Kb+qQq7AG8PXV59CKJWPwe/b0kFWVVnBOD7QQBSjuMCeGX9AlK2CwB70lr6SXLHANqo/v2u/r0AQ6LhAneZ8wAnjYj9y/InAckJeQBXjHb4naVnA/HPIQJmIMMDYL1xA
lpc_rms=-29.13
offset=220
sample=Clarinet_sustain_PP_A#4.opus
</region>

<region>
hivel=127
key=A4
loop_end=276403
loop_mode=loop_continuous
loop_start=74651
loop_xfade=24446
lovel=0
lpc=oRQqQ9SgnMPCqjRDzi46wqIbDEJdpK/BDS/vQbdiJcLSHYtBe8AKQUaIesFNFf9AmcoZwG+keL/QgsVA8WDWwGekKUD5aUhAZv4Xv+TBrcAC7JHAQjkWQOeSOUEWAVJA
lpc_rms=-22.84
offset=819
sample=Clarinet_sustain_PP_A4.opus
</region>

<region>
hivel=127
key=B4
loop_end=281509
loop_mode=loop_continuous
loop_start=76031
loop_xfade=24898
lovel=0
lpc=Nf0YQ2w1icPChhhDr7KJwrlcmEJ7pibCElXgQS7GusH191ZBepP0wO2El0Dn1CPBANvFv5ObJkBOWABBEQq2wMXd0UDiWkLBjHeDQaZ998BTFr69BZoqQYIAg8DhmtO+
lpc_rms=-19.68
offset=882
sample=Clarinet_sustain_PP_B4.opus
</region>

<region>
hivel=127
key=C5
loop_end=265017
loop_mode=loop_continuous
loop_start=71576
loop_xfade=23439
lovel=0
lpc=TNcmQ9ZXkMMNJRpD0hkmwmAcGEJeA4LBu90TP+Bz+MDbGkJApTSOwL82d0EaX8DA3vhlwQZFP0HcEy0/vRPgvp0vtMDqo1XAtQpFQVWUSj+kKHFAikccQJRTgUEBeZPB
lpc_rms=-23.62
offset=531
sample=Clarinet_sustain_PP_C5.opus
</region>

<region>
hivel=127
key=G#4
loop_end=273418
loop_mode=loop_continuous
loop_start=73845
loop_xfade=24182
lovel=0
lpc=xC6WQ45NBcSMIphDjLoJw+AMm0K+YbXBQdmlQng8vcJzgetBQ/sjQjqi68EnNTZBlM2wwV0VFcFmeAFBGKGOwQ3gn0FMOCPBRzPPQXLbrMBe46zAvaCGwLY+okABrfRA
lpc_rms=-17.68
offset=902
sample=Clarinet_sustain_PP_G#4.opus
</region>

<region>
hivel=127
key=G4
loop_end=272737
loop_mode=loop_continuous
loop_start=73661
loop_xfade=24122
lovel=0
lpc=wIgsQwcVlcNvbfhCaaOfwYliKEISlc3AL1J/QWmE1sEA22bAQ+0XQYknR0A3P4nA7ZydwJ0olsDgNOdArWPOvzoArL9nDpxALlrIQG2tUkBVrwbBPTa+wJu/rcE8xgBC
lpc_rms=-24.26
offset=372
sample=Clarinet_sustain_PP_G4.opus
</region>

<region>
hivel=127
key=D#4
loop_end=281895
loop_mode=loop_continuous
loop_start=76135
loop_xfade=24932
lovel=0
lpc=Yx4DQ6Oeb8PLuwdD3El6wjLvw0EgAuVAErDMQe0AvcESRuZAIhKKQRbbf8Ez8ADBNGznvyTo9b8HzelADILbwJEimECytLhA1sr+P1JNkkCLfTnBWhoJwBPHicHm+rJB
lpc_rms=-25.41
offset=294
sample=Clarinet_sustain_PP_D#4.opus
</region>

<region>
hivel=127
key=D4
loop_end=278779
loop_mode=loop_continuous
loop_start=75293
loop_xfade=24657
lovel=0
lpc=vN3LQp0NUcMRtQJDL1UcwtOfmUGSPzFArUPGQDHypMFfPoxAtTkrQXeCAT/tHJPAnKBXwFUWkcBD/Os/yLvSPt3Kqj/6b/xA3zzmPxpEhcAghRHAf+bjvll9f8FNVIRB
lpc_rms=-27.22
offset=163
sample=Clarinet_sustain_PP_D4.opus
</region>

<region>
hivel=127
key=E4
loop_end=257262
loop_mode=loop_continuous
loop_start=69482
loop_xfade=22753
lovel=0
lpc=FbMNQzbMh8OUARZDRswPwjDOrkFZ89/APRyVQWjTmcECHd8/BsMMQVrkssBAOy4+gc1EQMxjBMCVqgTAZZgQwT9HKT+GlyhB6QHiQDkErD23q8vAEfRYwH8Q08GjRuxB
lpc_rms=-24.79
offset=2573
sample=Clarinet_sustain_PP_E4.opus
</region>

<region>
hivel=127
key=F#4
loop_end=265662
loop_mode=loop_continuous
loop_start=71751
loop_xfade=23496
lovel=0
lpc=FkMBQqtmcMLheNZBpKS3v82iAkFDWCPAcMiaP5gPlsCWQZy+MIH4P+gA1Dworsu/YTT/vf+F8D4W6t8/VEYevyFqPr9v9r0+8GgUPxxIXD8XgZm/AoEZv734e8DKaaRA
lpc_rms=-38.54
sample=Clarinet_sustain_PP_F#4.opus
</region>

<region>
hivel=127
key=F4
loop_end=254211
loop_mode=loop_continuous
loop_start=68658
loop_xfade=22484
lovel=0
lpc=c29hQhaG0sJYvGhCnM+dwalGREGDuYq/3FQKQQfUC8FL9bg/bPViQDuOfcDxzhPA51nQvu3AL78DBJtA8kQ5wKZwNz/UmQpAyo/7PCZ6qD+zqFfAKG0wPzhFLsGHIDxB
lpc_rms=-32.64
sample=Clarinet_sustain_PP_F4.opus
</region>

<region>
hivel=127
key=A#3
loop_end=246922
loop_mode=loop_continuous
loop_start=66689
loop_xfade=21839
lovel=0
lpc=YQyAQqExyMKUBSVC8pLGweFb3kBag2pAF5I1Qca4R8BkWI1AbW0PQB5HsT+lotq/xfwZwEZLF8C4KYE/DBGAwGYnJL/UuXdAQm5DP2hSAsDlXXw/KgQGwHerhcAUCsxA
lpc_rms=-32.76
sample=Clarinet_sustain_PP_A#3.opus
</region>

<region>
hivel=127
key=A3
loop_end=267146
loop_mode=loop_continuous
loop_start=72151
loop_xfade=23628
lovel=0
lpc=GGVJQ1Mih8PYTVhCastHwtSGrUFJtAxAvdcCQqHWS0DRoC1BECIiQfsfBEGeVjPAEIyjwNH3uL8mD9i/+ZXhwFajw8B9UQBBBpu0wJijPcGztynAKKWEv4DGmMCufKJB
lpc_rms=-24.92
offset=1046
sample=Clarinet_sustain_PP_A3.opus
</region>

<region>
hivel=127
key=B3
loop_end=236331
loop_mode=loop_continuous
loop_start=63829
loop_xfade=20902
lovel=0
lpc=UhU6QzEPeMOSUG5CWT5Wwj6/mUGsT95ALc3UQXKgKcDbvRRB1Ji2QJRf10CtilNAE/PbvyoYksAjl/++2t+xwFpRx8AtOLtAqHsnwJ+HKsFzER7AFWvAvySQDMFkxrtB
lpc_rms=-25.46
offset=706
sample=Clarinet_sustain_PP_B3.opus
</region>

<region>
hivel=127
key=C#4
loop_end=262799
loop_mode=loop_continuous
loop_start=70977
loop_xfade=23243
lovel=0
lpc=XE4DQ9NgYcNT0q9CxS4OwqM3FEI0MP1AI6GLQb5YasEtxdc/TunXPwimGMCRRGbAKwJQwOKnysBvOH8/A7+uwMDeNzxr96lBOi4bQXrz3cDz2QfBCGDywMAswMHy7udB
lpc_rms=-26.23
offset=218
sample=Clarinet_sustain_PP_C#4.opus
</region>

<region>
hivel=127
key=C4
loop_end=260193
loop_mode=loop_continuous
loop_start=70274
loop_xfade=23013
lovel=0
lpc=fjYBQ+Q5UcPClrVCtE0/wkGr0EEsALZAziRsQXJCR8Gy8shAJdIvQDyKBEBW056/AdGXPxMH6cDLijg/BmpNwA9/oMBDlgNB+zI3QGcZqMDtZCtALG3Pv4PdFMHrdDtB
lpc_rms=-26.40
sample=Clarinet_sustain_PP_C4.opus
</region>
</group>

<group>
amp_veltrack=0
ampeg_attack=2
ampeg_release=0.35
group_label=MF
lpc_hicc1=84
lpc_locc1=43
volume=-5

<region>
hivel=127
key=D#6
loop_end=275962
loop_mode=loop_continuous
loop_start=74532
loop_xfade=24407
lovel=0
lpc=Ia+0QrHp6sK1Hp9CDZ6DwfzSzkE7E13Bae6nQYEkIMFytWdBam5AP6J9FEC8/N9ASNyVQGWIPECEhZFAUQBOQJ0jQkGbM2bBP3IYQsT6yMJaqqtCNlmGwZ09ksHjoUa/
lpc_rms=-13.36
offset=339
sample=Clarinet_sustain_MF_D#6.opus
</region>

<region>
hivel=127
key=D6
loop_end=266703
loop_mode=loop_continuous
loop_start=72032
loop_xfade=23588
lovel=0
lpc=CxmdQb3iwMGrL6JBzk6vwPRCeEDqUS2+4IRBQBvLMsBYtIhAcSubPzLQV8CmIdJA2IoiwJidiT8daSBA+iGNvtiyAz5wg5VAqPq1wM7tGUHelYjBLRUAQc6nbD/UiKLA
lpc_rms=-23.61
offset=800
sample=Clarinet_sustain_MF_D6.opus
</region>

<region>
hivel=127
key=E6
loop_end=264204
loop_mode=loop_continuous
loop_start=71357
loop_xfade=23367
lovel=0
lpc=/JC1QtmD8sIsaHpCY5iFQWFzp8HibqZB8Pilv1Tpp0AE5rNAyptxQDKG/D/gldRAr91GQJBfoUAhnum+TatsQV8gVcE3jP5BwFjGwrpJu0LXTJjAuBQ+wlZABkJg1UTB
lpc_rms=-12.60
offset=1094
sample=Clarinet_sustain_MF_E6.opus
</region>

<region>
hivel=127
key=F#6
loop_end=266384
loop_mode=loop_continuous
loop_start=71945
loop_xfade=23560
lovel=0
lpc=yJ6JQmrOoMKIjEhCTwzRQBXgHMFIlJxBZnrqwC//nkCKEFFA/A61QIFz5z64LsxAc22WP7F6BEF+lODAz4vEQRpflcIuvHRCcz/VwDDHAMJGJctB5HGUwYm6GUF7Bby+
lpc_rms=-15.99
offset=882
sample=Clarinet_sustain_MF_F#6.opus
</region>

<region>
hivel=127
key=F6
loop_end=282604
loop_mode=loop_continuous
loop_start=76326
loop_xfade=24995
lovel=0
lpc=K+Y6Qrp4bsKuGUxCuOp0wTGUIUG+siNBCpKaP3d2k0Bb9ghBUP2lQHRI2EAWoL5AAirzQP0vgEDIlCVBneq2PGtbkUFVdj7CO+dmQr+IyMFaDh9ANLkkQfnvOMHgogNB
lpc_rms=-13.99
offset=5467
sample=Clarinet_sustain_MF_F6.opus
</region>

<region>
hikey=C7
hivel=127
lokey=G6
loop_end=257570
loop_mode=loop_continuous
loop_start=69565
loop_xfade=22781
lovel=0
lpc=0Z4cQog1MsJbJSNCfdIFwbgXDUGfXdhAdTmWQEo/2r+dvz1B0itWv/yBG0GKSw1AbiwtQSDvisBnR7FBnnwawgEO8UGU80a/lMZ3wS4ja0GZHi/BsGXLQB1g5z555QNA
lpc_rms=-14.21
offset=1031
pitch_keycenter=G6
sample=Clarinet_sustain_MF_G6.opus
</region>

<region>
hivel=127
key=A#5
loop_end=276642
loop_mode=loop_continuous
loop_start=74716
loop_xfade=24467
lovel=0
lpc=bVYoQmbNk8L/No9CZv0VwohSHEHe8cQ/vW8+QRfWssFnVq9BBCy2wLS8n8BMwVhBs6YfwQZsjECr59tAFicuwVCvWEHc1NG/yTM4wb6BjUGw1lI/L1u6wQyWGEJqO73B
lpc_rms=-18.25
offset=820
sample=Clarinet_sustain_MF_A#5.opus
</region>

<region>
hivel=127
key=A5
loop_end=285408
loop_mode=loop_continuous
loop_start=77084
loop_xfade=25243
lovel=0
lpc=Fo6PQh+EAcOl/QlDTlSiwjulDEJW0fBAbISWQPCZgcEK7qFBTc4LQbZyM8Gq5JpBurAEQGqdScGZL5VBjjwUQaDNQsEYW6lB3DSTvxmFbcH+TP5B6BvEwIEyCj/DQx5B
lpc_rms=-12.72
sample=Clarinet_sustain_MF_A5.opus
</region>

<region>
hivel=127
key=B5
loop_end=292762
loop_mode=loop_continuous
loop_start=79070
loop_xfade=25893
lovel=0
lpc=cK86Qr74XsK/Zg5CO29IwM5ULMH2KwRBciGYQMq/tcDrGE3A/AhYQSB2NsCYD5PBNtMUQpVUAcKrxEVByiY8QYWbg8ETLAFBIEcpQMxVfkBxbG/B6USVQclV2b4nEaHB
lpc_rms=-20.73
sample=Clarinet_sustain_MF_B5.opus
</region>

<region>
hivel=127
key=C#6
loop_end=282127
loop_mode=loop_continuous
loop_start=76198
loop_xfade=24953
lovel=0
lpc=sb3KQtnZ9MK/bcZCPQSFwsCLhUJ5dSnChbVUQlyjCMLNtCRCW8B4wUxDzkF6IzPBrjfjQUJsY8Eyb+NB1U4swXV62UEWXZLB3LYqQmGdG8Kj54xCf7LDwuBPJEJyVj9B
lpc_rms=-12.83
offset=785
sample=Clarinet_sustain_MF_C#6.opus
</region>

<region>
hivel=127
key=C6
loop_end=290544
loop_mode=loop_continuous
loop_start=78471
loop_xfade=25697
lovel=0
lpc=YEYeQqX0d8KztnpCRi4qwuF5DkIbttbB8DfXQeWnh8FzGE1B8xHzP9thEsAanEtAwgSIQHpd3D/wxrQ/wZ+DPyBGTkBnWpxAuE6+wMlIlUFZ08vB+qgQQtY1EsKx7l1B
lpc_rms=-17.95
offset=15797
sample=Clarinet_sustain_MF_C6.opus
</region>

<region>
hivel=127
key=G#5
loop_end=285474
loop_mode=loop_continuous
loop_start=77101
loop_xfade=25249
lovel=0
lpc=sIXSQr2vI8OsqRJDBwGqwprvdUKeGXjBCJSKQZWyLsHNSkdBLd6NQDBpcEEciHnAM79YQSNhGcFosexBJ+5kwbTd10DlSKBBNpGiwIHei0EryYDBFIGyQX5fzcB/A8hB
lpc_rms=-14.06
offset=1263
sample=Clarinet_sustain_MF_G#5.opus
</region>

<region>
hivel=127
key=G5
loop_end=278715
loop_mode=loop_continuous
loop_start=75276
loop_xfade=24651
lovel=0
lpc=8zw4QmerkcKSB2xCLUPKwVwG1UCF4Lu/mDf3QUznCMIua3xB8TG6P8JDlr986zQ/E/qKQayrEcFjgeu/kghUQF34OD6o7PVAiLhtQLJ4nz7ywZS/GvssQFbgCcH9GpFB
lpc_rms=-16.68
offset=1190
sample=Clarinet_sustain_MF_G5.opus
</region>

<region>
hivel=127
key=C#5
loop_end=287977
loop_mode=loop_continuous
loop_start=77777
loop_xfade=25470
lovel=0
lpc=ZmP+QkTYgsO46jxDhglxwkRa5EHkF94/COWtwXju70C4bIjBOF/4QTKRrcH96ZxBTXDCwdoekkEOv+DAzwysvzIB1EBBsEvBC6goQebQg0F181zBB3UMQR7eh8ElPVRB
lpc_rms=-12.38
offset=8757
sample=Clarinet_sustain_MF_C#5.opus
</region>

<region>
hivel=127
key=D#5
loop_end=275158
loop_mode=loop_continuous
loop_start=74315
loop_xfade=24336
lovel=0
lpc=o3XVQTlnjcJsJKFCNXZNwrF6ikFm2i5B+6DFweWScEEXx5JAZmBQwaInMkG2Rdu/K/IJwXoyCkEJChbAuFUEPypgNsB/bGFBfCHUwdEXyEGAi0vBUqkRQW6kOMHsE9tA
lpc_rms=-18.83
offset=1191
sample=Clarinet_sustain_MF_D#5.opus
</region>

<region>
hivel=127
key=D5
loop_end=264055
loop_mode=loop_continuous
loop_start=71316
loop_xfade=23354
lovel=0
lpc=IJMcQsvU5sLPywtDBxKmwkjsxEEIDfTAkkokQYWkesGysolBd6CfwG4YJMGqfCBBKNYrQLO1R8GHPGBBbOQAwbfTHsAE3UdBxMwQwZfzF8BfKce/5CisQR6uy8HhJCRB
lpc_rms=-16.74
offset=1637
sample=Clarinet_sustain_MF_D5.opus
</region>

<region>
hivel=127
key=E5
loop_end=284104
loop_mode=loop_continuous
loop_start=76731
loop_xfade=25127
lovel=0
lpc=4SsmQk+V5MIB5AxDBGu2wjIc7kENTi1AfrsFwYyEjcBcGJtBT6SrwdCTQ0HXjf+9cobdwI3iBkHhZh/BO0teQZRbXcHPL5FBKhCpweqGp0GLJaTBFm24Qej6ccHzroZA
lpc_rms=-14.25
offset=1060
sample=Clarinet_sustain_MF_E5.opus
</region>

<region>
hivel=127
key=F#5
loop_end=279135
loop_mode=loop_continuous
loop_start=75389
loop_xfade=24688
lovel=0
lpc=d26IQndHH8NvEixDJA/HwgM3BkIQuAHBBaPfQVbLOcJBiEBCXRkdwoAIAUILTMfATp17wZdEokG70kJAriNSwakVC8ElyyZCWkYOwjwtMkHX9FxASYedQXw8JsLs0+xB
lpc_rms=-10.74
offset=870
sample=Clarinet_sustain_MF_F#5.opus
</region>

<region>
hivel=127
key=F5
loop_end=282571
loop_mode=loop_continuous
loop_start=76318
loop_xfade=24992
lovel=0
lpc=9oLzQSuqkcJRHJtC6+g7wq7jWUF9Fi1BpkuywN3abMGLralBpyuBwf56bkFje07BOR4yQQONmcCcfOm/cXgGQWpDN8GWG7xAsJpFQO1ZlD9p9qjAMM77QMNpP8HCahBB
lpc_rms=-17.25
offset=1247
sample=Clarinet_sustain_MF_F5.opus
</region>

<region>
hivel=127
key=B4
loop_end=281306
loop_mode=loop_continuous
loop_start=75976
loop_xfade=24880
lovel=0
lpc=yd77Qts+jsN6aoFDkwYYw71P6EKFoYvCwQBkQUNWMsGVoUhBSToiQQtzssAdb5vBGjEHQRYIwUC8FO/A+UWMQbL9fcCknMLBLDD0QenXgsHNHJ2/SMnFQQmv+MFVwJlB
lpc_rms=-16.00
offset=697
sample=Clarinet_sustain_MF_B4.opus
</region>

<region>
hivel=127
key=C5
loop_end=276677
loop_mode=loop_continuous
loop_start=74725
loop_xfade=24471
lovel=0
lpc=KlyXQgGEKcPNqhBDfBBLwj6ukUEP/CHBFdIswVIC9EAmejJBLI87wYV+k0D7BYu/A+4cwTq0hkEN8xvBMGgGQS4WQsGkGTdAbCnQQFoE8MCQ7RNBijdUQWbi6cGWM5BB
lpc_rms=-17.75
offset=346
sample=Clarinet_sustain_MF_C5.opus
</region>

<region>
hivel=127
key=A#4
loop_end=280438
loop_mode=loop_continuous
loop_start=75741
loop_xfade=24803
lovel=0
lpc=nMaRQlnZMcPmaiJDrt2Xwk2XPkLlO93BlddnvxO52sAMQVJBobIgP0zi/z+jn3jBTg/QQD2v+UBYbhLAD3ptPio1mMBB9PTA1IZiQcqUBMAh6ufAtEbqQQWMMMLbv7tB
lpc_rms=-16.55
offset=524
sample=Clarinet_sustain_MF_A#4.opus
</region>

<region>
hivel=127
key=A4
loop_end=272887
loop_mode=loop_continuous
loop_start=73702
loop_xfade=24135
lovel=0
lpc=YHuMQh2ZL8OyGStDP5m5wvz4cUIbLi3C9XaIQXXTrMGjcwJCVJpNwdOPgcFewIFBuHqfQMnsocBWBB3Bl6LUQK0Mo8Dar0JBhr93wEq14b9++BvBQdKRQePNa8ESFAFB
lpc_rms=-16.90
offset=606
sample=Clarinet_sustain_MF_A4.opus
</region>

<region>
hivel=127
key=G#4
loop_end=283586
loop_mode=loop_continuous
loop_start=76592
loop_xfade=25082
lovel=0
lpc=385AQ5+6AcQ2Nw1EXli8wxTVh0O++z/DbrnLQrzh0cJD+9VCljXkwcdqY8KUpKJCWY4bwtBzkUGkF1HCCmEYQjll2UCXdIDBXbMLQvHgPMJaBcZBNOPYwH+Ev8AP30tB
lpc_rms=-10.99
offset=568
sample=Clarinet_sustain_MF_G#4.opus
</region>

<region>
hivel=127
key=G4
loop_end=280310
loop_mode=loop_continuous
loop_start=75707
loop_xfade=24792
lovel=0
lpc=Fq2bQtyxasPtRo5DRQgxwyWXp0LqMojCHZNrQjYORcIlHDZCrhH6wI3wNsL9lU9ClVa4wJaLAMI/lpBBhKG/QGadBz+ipCjBOlZdQSnWmMGPnUVAupAFQveWL8I575pB
lpc_rms=-15.39
offset=627
sample=Clarinet_sustain_MF_G4.opus
</region>

<region>
hivel=127
key=F#4
loop_end=281543
loop_mode=loop_continuous
loop_start=76040
loop_xfade=24901
lovel=0
lpc=MqcDQgyzr8KtcL1CzmN8wngEOkKlXgTCRmqpQQY5xMFYx4ZBq/l7QCuifsEBdXRBbseuwAiZt8C1LhFBbELnwMvNQEDcLgDAH0F5QAkE+T603ILAXBOZQCcBy8CxWoNA
lpc_rms=-26.97
offset=174
sample=Clarinet_sustain_MF_F#4.opus
</region>

<region>
hivel=127
key=F4
loop_end=279772
loop_mode=loop_continuous
loop_start=75561
loop_xfade=24744
lovel=0
lpc=HHhPQilCKcN1A3FDIjVSwxCWDkOh2p7Ce6zJQdGQhMDFBwFB2saYP+AZs8HZf+JB/69TwS1Vmr8DaBk/e1Nvv1R8F0G/H9/AfOcgwURwzUHdOhnCXsM9Qk/rFsIcBldB
lpc_rms=-18.57
offset=1044
sample=Clarinet_sustain_MF_F4.opus
</region>

<region>
hivel=127
key=C#4
loop_end=285940
loop_mode=loop_continuous
loop_start=77227
loop_xfade=25290
lovel=0
lpc=dH2LQiwTV8NSum5DbFLWwmBly0FW+5fBGQAbwV/XDUI7rcfBnoZtQSZeiMEd+lRBJSn6v8fd98AKORxBf94Dwdv2oUBOb6lAcm+Dwb+v4EAy6A9BS4wDQen83MHlzVZB
lpc_rms=-18.10
offset=5519
sample=Clarinet_sustain_MF_C#4.opus
</region>

<region>
hivel=127
key=C4
loop_end=283422
loop_mode=loop_continuous
loop_start=76547
loop_xfade=25067
lovel=0
lpc=2lKRQly5WsP7U4JDsUwYwxCcV0KH2NzBIvKDQXZti8FCq91BcumCwb68vcBFh4lBx0U4wc+E78CTLmhB1DUOwdYw8j8O80BBIRWIwSCFTMBLUFFBITooQMhxEsFbzmhA
lpc_rms=-19.77
offset=2795
sample=Clarinet_sustain_MF_C4.opus
</region>

<region>
hivel=127
key=D#4
loop_end=281811
loop_mode=loop_continuous
loop_start=76112
loop_xfade=24925
lovel=0
lpc=SvyEQl6CIcMTnvtCBGY4wgulNkLzmbTBgxGywUHVK0Fcihi/ZndYQdBOHcF/pnFAqiWcwBSWDUBjfsQ/ZvGhwOnDeUBFx7i/aIpMQDZ7TUA4vPTAIm0NQFallsA3XKxA
lpc_rms=-16.20
offset=1370
sample=Clarinet_sustain_MF_D#4.opus
</region>

<region>
hivel=127
key=D4
loop_end=281405
loop_mode=loop_continuous
loop_start=76003
loop_xfade=24889
lovel=0
lpc=z128QufdmsNk4cpD9MqMw6J6CUOmHT3CnpkFwhqJUULzjIvBplizP9korMBXyiJBIyyOQBWS9cFd+J1BrO+FQOzqqD4g4dpADKrwwUBYwEHLZ0DB8UDWQS9VAsKOSlFB
lpc_rms=-15.06
offset=845
sample=Clarinet_sustain_MF_D4.opus
</region>

<region>
hivel=127
key=E4
loop_end=279296
loop_mode=loop_continuous
loop_start=75433
loop_xfade=24702
lovel=0
lpc=KwrAQoGxe8M4p35DCv4Nw3ernEKSEg/CTmkKwS7bUsG6hfBBoDu5QGH7L8F2fum/02h8wGpI00B7nBpA75WCwAR85MDhuWpBfAkcwcO68D8MltDA3dSHP9sJzEDF+4+9
lpc_rms=-15.63
offset=1379
sample=Clarinet_sustain_MF_E4.opus
</region>

<region>
hivel=127
key=A#3
loop_end=268885
loop_mode=loop_continuous
loop_start=72621
loop_xfade=23781
lovel=0
lpc=mSZwQkGJK8PaDC5D9peWwt924kHckInBpTbZwB0K9j+F1U9BngWLP/5tT8FiH19BknOqwZBth0FFUXPAvF4TwG8adUA7G0VAQXMPwUZTDkClwGBARH5oPxyUsMBXpE1A
lpc_rms=-23.25
offset=3401
sample=Clarinet_sustain_MF_A#3.opus
</region>

<region>
hivel=127
key=A3
loop_end=276022
loop_mode=loop_continuous
loop_start=74549
loop_xfade=24413
lovel=0
lpc=dv1sQjnDK8OZEzBDfxSDws7ppUCOxwbBmecKPyJ3KkDr5+tAQ6VIP7jXlMHVE8lBue2owRTYNkHnkZa/NiMMwRS3G0GzzNdAGahmwUkKtb8EbT9BiJjRwGa6iD/8D4U9
lpc_rms=-18.91
offset=2543
sample=Clarinet_sustain_MF_A3.opus
</region>

<region>
hivel=127
key=B3
loop_end=282313
loop_mode=loop_continuous
loop_start=76248
loop_xfade=24969
lovel=0
lpc=3JNxQnN+NMP4v1BDb/7kwgkO+EFoZo6/H4hGwGrZj8Fj6xFC/DDwwWpdYkEH6+BAYXvYweawzUG1nE/BYrdVP4UQ5UDFOSW/Hjoxwc8qP0E3l4DAOwNROjIjM8ATXThA
lpc_rms=-19.48
offset=2230
sample=Clarinet_sustain_MF_B3.opus
</region>
</group>

<group>
amp_veltrack=0
ampeg_attack=2
ampeg_release=0.35
group_label=FF
lpc_hicc1=127
lpc_locc1=85
volume=-5

<region>
hivel=127
key=C#6
loop_end=269411
loop_mode=loop_continuous
loop_start=72763
loop_xfade=23828
lovel=0
lpc=k9YbQm2cOMLanxRCFKCVwaXAdUEsVILAR8Q4QUMp4cAW619B8+ybwL5gDUFn76G+8VnQQOwcHb9VUBJBuIuMwOq2S0E4leDANm9nQRKzEsHey6pBFRcIwlFchkEgtiNA
lpc_rms=-11.89
offset=846
sample=Clarinet_sustain_FF_C#6.opus
</region>

<region>
hivel=127
key=C6
loop_end=278001
loop_mode=loop_continuous
loop_start=75083
loop_xfade=24588
lovel=0
lpc=cCOMQsyql8Iy/o1CI9IzwnOvGUI3pJTB0BGQQfijnb8eEeY/5gw/QdgHa8AenA9ByG9HQGuTuT80djNBQux9wL98CUGfRt5A9oHSwFRyw0FX1tfBCHZGQjyYdMLtO2xB
lpc_rms=-10.48
offset=767
sample=Clarinet_sustain_FF_C6.opus
</region>

<region>
hivel=127
key=D#6
loop_end=274345
loop_mode=loop_continuous
loop_start=74096
loop_xfade=24264
lovel=0
lpc=PS3DQudx+8Lzp6RC31NbvvRSI8HIO8lAhMV7QWAMrEAel21B6VD3QB6TMEH4ayxB9SoqQT/KFEHZoFBBMiaaQMlfqUH/GfrAME0sQrDjyMIc17tCqt+iP2dcMcKfvyVC
lpc_rms=-5.89
offset=710
sample=Clarinet_sustain_FF_D#6.opus
</region>

<region>
hivel=127
key=D6
loop_end=276139
loop_mode=loop_continuous
loop_start=74580
loop_xfade=24423
lovel=0
lpc=Nf1wQmy0fcJaW6xBag8gQWvkWz8ZXQFAUfX9QGGalsDsWfRAaVI9QFnFRcDt+ipBh5F0v5FQuz/UoX9A3SunQGvbYsDooT1BDXoEwUJ7mUGYMz/Cc31ZQbKj9EGvCq7B
lpc_rms=-9.16
offset=494
sample=Clarinet_sustain_FF_D6.opus
</region>

<region>
hivel=127
key=E6
loop_end=278294
loop_mode=loop_continuous
loop_start=75162
loop_xfade=24614
lovel=0
lpc=tZwxQ+T7fMNlyg5DFlV5QTNqicJN6HhCZ9ttQExoEj9pyYlBMBWeQH5kU0CIpGpBGZKeQDH5FEEyvtQ/PbrLQe0mxsEfc31CZRBGw0XkR0PpSKHBagG9wjIz1EKWbEHC
lpc_rms=-3.46
offset=789
sample=Clarinet_sustain_FF_E6.opus
</region>

<region>
hivel=127
key=F#6
loop_end=276958
loop_mode=loop_continuous
loop_start=74801
loop_xfade=24495
lovel=0
lpc=9CSaQn3y7MJDbLtCa42XwSJLQMGUkwZC+QfbwH0qyUAtIxZBmDofQS8sa0AGx3dBcD94vr/tjUE4UZ7AxML+QVg+ocKQRr9Cek2mwfnHBML3cF9CF4QXwqDvikEztYU/
lpc_rms=-9.90
offset=5877
sample=Clarinet_sustain_FF_F#6.opus
</region>

<region>
hivel=127
key=F6
loop_end=275774
loop_mode=loop_continuous
loop_start=74482
loop_xfade=24391
lovel=0
lpc=nuFSQoCmm8JlhGlChhV1wY6f7cBZk5pBWetBwWpBukCZ9KQ+gSKUQAZOJ7/HO5ZAHMm/P6bzq7w23fRAaJPHwBzRhUGkq2bCcHp4Qu3no8El4HTBpPDkQc2lscEpDDlB
lpc_rms=-8.96
offset=830
sample=Clarinet_sustain_FF_F6.opus
</region>

<region>
hikey=C7
hivel=127
lokey=G6
loop_end=267268
loop_mode=loop_continuous
loop_start=72184
loop_xfade=23638
lovel=0
lpc=StB0Qp6ChsJwlRpCnTFZQVWsgcE+LOFBluahwNgjicDMrp5BwzS4vxPiFEEk5f8/ko5HQcQN/sAv2N1BMrxywj2QHUIjjohBYK8pwgv3/kGkkIjBOfEQviyUXEH+eg/B
lpc_rms=-13.52
offset=637
pitch_keycenter=G6
sample=Clarinet_sustain_FF_G6.opus
</region>

<region>
hivel=127
key=A#5
loop_end=283104
loop_mode=loop_continuous
loop_start=76461
loop_xfade=25039
lovel=0
lpc=SmlJQuAXp8LJM71CiJVgwiK4nEH09zVBvlLyQBUaAsKolmZCVsAVws9U+EBmFwJCBhjnwadWrECIXx5C2lw9wrDVDUIpEwNB1qzUwYI5xEFsZJVBAmkvwhDIV0L8SLHB
lpc_rms=-8.28
offset=919
sample=Clarinet_sustain_FF_A#5.opus
</region>

<region>
hivel=127
key=A5
loop_end=281150
loop_mode=loop_continuous
loop_start=75934
loop_xfade=24866
lovel=0
lpc=xsyKQmdAv8IB+ctC3M0VwibLQEErYBpBJhgEQosxLsJTAVxCDHOFwJcSBMEMLKBBnGq1QVjLtcFGfNFBsFm1QaWR7sEjQRdCkMfwQC2VrcDqrh5AOZc6QqOUNcKOETtC
lpc_rms=-9.98
offset=1071
sample=Clarinet_sustain_FF_A5.opus
</region>

<region>
hivel=127
key=B5
loop_end=291411
loop_mode=loop_continuous
loop_start=78705
loop_xfade=25774
lovel=0
lpc=hFWEQuQDnMLxf5FCGAYPwtFAyUE0s3fBG+YAQheQ18FXQ+BBScc3wc/owUERfwDCTQheQkrTPMKePCFCO2tQwTfiWkF9Mi3BOKTTQcAXfcHt3nVBBohRwOi5rkFQmuXB
lpc_rms=-11.50
offset=12943
sample=Clarinet_sustain_FF_B5.opus
</region>

<region>
hivel=127
key=F#5
loop_end=284698
loop_mode=loop_continuous
loop_start=76892
loop_xfade=25180
lovel=0
lpc=bvu0QbSSYMKwo49CVr2AwjKJQUIhD6/BlgAxPxX4Dz6DkB9BemVQwaJsZUGxw/jAWUQSwFG2h0CoNp1AaS0PwYYFDEFUNYnAB5XNwAOljUFP3oHBl/tkQbuEUMEQh/hA
lpc_rms=-11.08
offset=1363
sample=Clarinet_sustain_FF_F#5.opus
</region>

<region>
hivel=127
key=F5
loop_end=278886
loop_mode=loop_continuous
loop_start=75322
loop_xfade=24666
lovel=0
lpc=VfvgQQEam8LXfslCzyChwmVaOEIfYGrB5/kYPjUr3sAiFY9BaHpHwbN7gr7hTMRAdk1oQHY6iMEdtZ9BunZDwT6NAUEQuM3Ayp2/QAqe8sCpR5pAwJ0wQVwtmsFwjiZB
lpc_rms=-10.83
offset=812
sample=Clarinet_sustain_FF_F5.opus
</region>

<region>
hivel=127
key=G#5
loop_end=281207
loop_mode=loop_continuous
loop_start=75949
loop_xfade=24871
lovel=0
lpc=4//UQamEOMJhgVVCdTAxwptuAUKDVobBAcOyQclCw8HFE71BiNGCwRUhNEF6ZQ9AaJ+Jv3d/0j1Pp55A8i+FwD1gDEBBUSRBzVXZwL4Ii0D+lGm/yTwcP63MaUDhLXRA
lpc_rms=-10.83
offset=2056
sample=Clarinet_sustain_FF_G#5.opus
</region>

<region>
hivel=127
key=G5
loop_end=284028
loop_mode=loop_continuous
loop_start=76711
loop_xfade=25121
lovel=0
lpc=46twQZa+BMJ50B9C+Dr2wUZwm0HkQRXBqm8LQV0ZM8FSKShBTqg3wAieHr899bg/1e02P/ae678/MoRAJOj0v2Z7yz+B0Z6/3o1hP2jGdEBywKXAFZX0QKJQBsEW78VA
lpc_rms=-11.84
offset=1148
sample=Clarinet_sustain_FF_G5.opus
</region>

<region>
hivel=127
key=B4
loop_end=270994
loop_mode=loop_continuous
loop_start=73191
loop_xfade=23968
lovel=0
lpc=GNRNQjsaBsPdbRlDuyPdwhQVm0KJuVbCiAj5QSVRucFfF39BWXThwAuEAEGg8hrBzfCRQFf0xkCKKYXB7LojQVpKW0AvptnA6Hw/QfdVpMFoJaZBuDUZwbrK576c4YlA
lpc_rms=-10.72
offset=744
sample=Clarinet_sustain_FF_B4.opus
</region>

<region>
hivel=127
key=C#5
loop_end=280190
loop_mode=loop_continuous
loop_start=75674
loop_xfade=24781
lovel=0
lpc=Gr0eQoP/sMI2iJpCdejqwbKoL0E3Xx/BLt7YP4nib8BpBCJBY0AHwURaBkF1yLjAEwnjPzgxisDwihBA9TM9QDzuJ78WlgLAV4TwQI6ghcHFxXlBCLGeQNR9McE4kHBA
lpc_rms=-12.68
offset=537
sample=Clarinet_sustain_FF_C#5.opus
</region>

<region>
hivel=127
key=C5
loop_end=288386
loop_mode=loop_continuous
loop_start=77888
loop_xfade=25506
lovel=0
lpc=JMpiQoOx88J8hN9CZC9Mwl6+rkFqLNvAgw22wKkFnsBMmURB0xDJv2yrQT+6PqXAQ7NvwP1/JEETyszAb6OMQH35fMDjlMg+ZwYgQApP7cD+cCdBV80dQYKmpcFOyWZB
lpc_rms=-13.46
offset=6507
sample=Clarinet_sustain_FF_C5.opus
</region>

<region>
hivel=127
key=D#5
loop_end=272240
loop_mode=loop_continuous
loop_start=73527
loop_xfade=24078
lovel=0
lpc=iDh3QQOoFMKA0B9CGPXTwcyaYEHBYFPA0nRNwI3KCj0/ybRAdApSwJ8fvD5zDjw/YENswK/crD95KsxAi6MLwYGCkEDMB0FAeUzvwIRQ4EBgQYG/ec4tv0MyVMBprlJA
lpc_rms=-15.49
offset=798
sample=Clarinet_sustain_FF_D#5.opus
</region>

<region>
hivel=127
key=D5
loop_end=279774
loop_mode=loop_continuous
loop_start=75562
loop_xfade=24744
lovel=0
lpc=LUegQZVWW8JneIFCiEYewgNTMkFHfRxAaxRUv7WgIMGGNmNB2bzRwOIKZkA1i8HAPLuZQCgk08AjEilBvwLIwJEGjrxloTg+8CudQAO2I8HoIDpBDB0zwOCYq8DzuXJA
lpc_rms=-14.23
offset=1195
sample=Clarinet_sustain_FF_D5.opus
</region>

<region>
hivel=127
key=E5
loop_end=285882
loop_mode=loop_continuous
loop_start=77212
loop_xfade=25285
lovel=0
lpc=urqBQXYBMcI5XFhCcnYGwrPVCkFlCBu/HHzhQObnfsENKJRBx9gUwfufCcB/ODNAzH+1QBayE8Ftna9AlcEWP4JJtMCJKwRBaTJRwPBlLsAP63u7rdAMQfH7IsETsZJA
lpc_rms=-11.35
offset=11318
sample=Clarinet_sustain_FF_E5.opus
</region>

<region>
hivel=127
key=A#4
loop_end=283231
loop_mode=loop_continuous
loop_start=76496
loop_xfade=25050
lovel=0
lpc=ShiSQR5LNMLeSTxCAYvUwTKAWkHpIyzB/LgOQZgzPMHZ71ZBPa6hwNPtfcBfz3RAbKUeQBdZ2MDK8z5A4IDHP0VXWEDr9R7Byi4LQYaMDMF+LExBCm8CwTisVr//0ExA
lpc_rms=-14.91
offset=330
sample=Clarinet_sustain_FF_A#4.opus
</region>

<region>
hivel=127
key=A4
loop_end=278038
loop_mode=loop_continuous
loop_start=75093
loop_xfade=24591
lovel=0
lpc=tAXpQYy/osJi8cdCh5GKwsuuCUJoLKTBzk2mQeYs4sEC0tpBh5jRwITtfMES6JdB12GdwKvsSsG3Np5Ble+AwUdvLkGQJ6zA7F8cQHXK2MCfB9ZAHYCyQKIXXMFrgQNB
lpc_rms=-13.93
offset=683
sample=Clarinet_sustain_FF_A4.opus
</region>

<region>
hivel=127
key=F#4
loop_end=280882
loop_mode=loop_continuous
loop_start=75861
loop_xfade=24843
lovel=0
lpc=yDKKQaLuS8KiWHBC3REDwq5cBEGKCKrAAK0UQYxEQsF6JjdB+DeZwChp2r9IM4lAgjtmwPl2vL9Y5qhADoVuwFKBE0Db4lC93BmfwD17gkCa14A/e6GSP8HUscB9p01A
lpc_rms=-21.27
offset=385
sample=Clarinet_sustain_FF_F#4.opus
</region>

<region>
hivel=127
key=G#4
loop_end=274057
loop_mode=loop_continuous
loop_start=74018
loop_xfade=24239
lovel=0
lpc=SMIUQqSG2ML4NgNDTgiowrIRFEIxAO3BRC1BQkukjcIRDINCG3jSwZA4k8BGO5pAnXswQYVh1ME0a8RBULowwcm9vEAQ9VLAXwx8v89x/sDxAKFBeAMVwYxhB8EbDfNA
lpc_rms=-9.02
offset=995
sample=Clarinet_sustain_FF_G#4.opus
</region>

<region>
hivel=127
key=G4
loop_end=277391
loop_mode=loop_continuous
loop_start=74919
loop_xfade=24534
lovel=0
lpc=EK7aQR9foMJDSMVCdst/whkIpEEJPbo/DxhfPyEhoMFT89lBlJH0wAiyLsERCA1BxaOyQINim8FHzLhBMYmpwWHJrEGbupPBU9gjQRcObcBNYIbA9t1iQXcAdcHX6dJA
lpc_rms=-12.95
offset=990
sample=Clarinet_sustain_FF_G4.opus
</region>

<region>
hivel=127
key=C#4
loop_end=281646
loop_mode=loop_continuous
loop_start=76068
loop_xfade=24910
lovel=0
lpc=v8siQhKACcNHFUZD+HUkw1jpuEL3zA/CeVYGQQWREcFmy1FB8NnwvyWbDcFDl0dB9boHwcRdJcHFc8pB7nvGwVaXmEEqeRDBC/yOPjtMpsA9IoFBQp5swd/ZpEDSUfW+
lpc_rms=-16.97
offset=1575
sample=Clarinet_sustain_FF_C#4.opus
</region>

<region>
hivel=127
key=C4
loop_end=277862
loop_mode=loop_continuous
loop_start=75046
loop_xfade=24575
lovel=0
lpc=HJrVQSmirsJ+WfdCjTHKwpzhYEIxi8jBoigvQQLrOMFSgZpBToeTwSNt+UBQsw5AalaLwPsZFMDERAVBDV4ewdmrAEFU9Ny/Gl2avzjjv8DzBU1BGcAJwUW0iD844lY/
lpc_rms=-17.90
offset=1674
sample=Clarinet_sustain_FF_C4.opus
</region>

<region>
hivel=127
key=D#4
loop_end=277369
loop_mode=loop_continuous
loop_start=74912
loop_xfade=24532
lovel=0
lpc=QhnAQehTlMICYL1C7B6EwhMJBEIfhX7Blwm8QB22KMHm6rBB4Z13waPqF0BwxHfAHhwEQXpwv8AUmhdAH4oFvsfgEb5I5VG+s9WrPc4cH788Grs/T3uwPkbSScCiTARA
lpc_rms=-15.98
offset=1359
sample=Clarinet_sustain_FF_D#4.opus
</region>

<region>
hivel=127
key=D4
loop_end=274562
loop_mode=loop_continuous
loop_start=74154
loop_xfade=24284
lovel=0
lpc=TYHpQWNitMKuJORCCKejwmFqQEK8x8TBeX1Rv2A9qUDMuM5ACX+MwBk2hEAx43TBsKBZQcyB58Bd20xBnECKwXO8P0G0j5PA8vdTvsjhQ799yTJB6++KwaatIEEBf/e/
lpc_rms=-17.28
offset=1621
sample=Clarinet_sustain_FF_D4.opus
</region>

<region>
hivel=127
key=E4
loop_end=278412
loop_mode=loop_continuous
loop_start=75194
loop_xfade=24624
lovel=0
lpc=9UjeQfn6o8L8qMZCg62AwgD90kFb9wLBPKaFQFshZ8ERFatBXGfwwNay18DzPrdA62IYv4Bejb+DfBXAGrprQD/uuL6v38M/tziBwOPlJkDio6rADjtgQYs7b8EHYb1A
lpc_rms=-15.80
offset=556
sample=Clarinet_sustain_FF_E4.opus
</region>

<region>
hivel=127
key=F4
loop_end=282965
loop_mode=loop_continuous
loop_start=76424
loop_xfade=25027
lovel=0
lpc=KJa2QUckicLOvqVCK/pCwmHfikFx64HB73LNQYcV7sFShq9BvNImwHEVMcH9NgFBcsmAQAvgacHs545BmC2UwQvekUFrtx/BGdQQP90O3b+ER1lAvoOpQCRwKsGtE59A
lpc_rms=-17.63
offset=595
sample=Clarinet_sustain_FF_F4.opus
</region>

<region>
hivel=127
key=A#3
loop_end=284689
loop_mode=loop_continuous
loop_start=76889
loop_xfade=25179
lovel=0
lpc=xDT6QXIpxMKCyvRCNLKcwsT5AkLyNinBflycwGVN20Cit4xAYgMlwd3Cs0C54EtAnaYEwVNcnUB9byU/+F67wEQAJEFOiI/AJLp4wCCvmD4UuAFBK8IgwXtyv0BB+Mi/
lpc_rms=-17.55
offset=1566
sample=Clarinet_sustain_FF_A#3.opus
</region>

<region>
hivel=127
key=A3
loop_end=282723
loop_mode=loop_continuous
loop_start=76358
loop_xfade=25005
lovel=0
lpc=JyU/QmuTE8OjPS1D8PCzwjkwlEHR7o/A1EUXv+Psl0Cwm65A2cFdwaVuA0HpnpRAnhQowVyCb780aBJB4BB4wF7nD0DKzdq+rtOUwM0NiT5Lg/BAT4KYwIE6+r+sXAVA
lpc_rms=-16.21
offset=3209
sample=Clarinet_sustain_FF_A3.opus
</region>

<region>
hivel=127
key=B3
loop_end=281830
loop_mode=loop_continuous
loop_start=76117
loop_xfade=24926
lovel=0
lpc=6tkaQgQU98KNuyVDeYn1wiWRUkIxMdrAEbP0wPirvkDuzge/U5oDwWxngEHrmTjBKbNCwCM7h0ChdDRBd8DKwXTUzEHz8kPBLyIZQEEOvMA+b0FBwrlNwSzz90CRXtK/
lpc_rms=-14.66
offset=1656
sample=Clarinet_sustain_FF_B3.opus
</region>
</group>